<mxfile host="app.diagrams.net" modified="2022-01-24T20:58:04.717Z" agent="5.0 (X11)" etag="jbvCKzqBYSF_V-tnkuBf" version="16.4.5" type="github" pages="2">
  <diagram id="y1aA-pmVLVRGej6oJzrc" name="Page-1">
    <mxGraphModel dx="1102" dy="608" grid="1" gridSize="10" guides="1" tooltips="1" connect="1" arrows="1" fold="1" page="1" pageScale="1" pageWidth="850" pageHeight="1100" math="0" shadow="0">
      <root>
        <mxCell id="0" />
        <mxCell id="1" parent="0" />
        <mxCell id="Dx2p2IBM6nT1JZtIELXC-1" value="" style="rounded=0;whiteSpace=wrap;html=1;" parent="1" vertex="1">
          <mxGeometry x="110" y="100" width="670" height="650" as="geometry" />
        </mxCell>
        <mxCell id="Dx2p2IBM6nT1JZtIELXC-7" value="" style="rounded=0;whiteSpace=wrap;html=1;fillColor=#d5e8d4;strokeColor=#82b366;" parent="1" vertex="1">
          <mxGeometry x="120" y="110" width="650" height="60" as="geometry" />
        </mxCell>
        <mxCell id="Dx2p2IBM6nT1JZtIELXC-3" value="" style="shape=rect;fillColor=#e0e0e0;strokeColor=none;" parent="1" vertex="1">
          <mxGeometry x="286.5" y="135" width="317" height="20" as="geometry" />
        </mxCell>
        <mxCell id="Dx2p2IBM6nT1JZtIELXC-4" value="" style="html=1;strokeWidth=1;shadow=0;dashed=0;shape=mxgraph.ios7ui.marginRect;rx=3;ry=3;rectMargin=5;strokeColor=none;" parent="Dx2p2IBM6nT1JZtIELXC-3" vertex="1">
          <mxGeometry width="317" height="20" as="geometry" />
        </mxCell>
        <mxCell id="Dx2p2IBM6nT1JZtIELXC-5" value="Search" style="shape=mxgraph.ios7.icons.looking_glass;strokeColor=#e0e0e0;fillColor=none;fontColor=#e0e0e0;labelPosition=right;verticalLabelPosition=middle;align=left;verticalAlign=middle;fontSize=6;fontStyle=0;spacingTop=2;sketch=0;" parent="Dx2p2IBM6nT1JZtIELXC-3" vertex="1">
          <mxGeometry x="0.5" y="0.5" width="6" height="6" relative="1" as="geometry">
            <mxPoint x="-17" y="-3" as="offset" />
          </mxGeometry>
        </mxCell>
        <mxCell id="Dx2p2IBM6nT1JZtIELXC-8" value="&lt;font style=&quot;font-size: 18px&quot;&gt;BookWorms&lt;/font&gt;" style="text;html=1;strokeColor=none;fillColor=none;align=center;verticalAlign=middle;whiteSpace=wrap;rounded=0;" parent="1" vertex="1">
          <mxGeometry x="140" y="125" width="110" height="30" as="geometry" />
        </mxCell>
        <mxCell id="Dx2p2IBM6nT1JZtIELXC-9" value="Primary" style="html=1;shadow=0;dashed=0;shape=mxgraph.bootstrap.rrect;rSize=5;strokeColor=none;strokeWidth=1;fillColor=#006AC9;fontColor=#ffffff;whiteSpace=wrap;align=left;verticalAlign=middle;fontStyle=0;fontSize=14;spacingLeft=10;" parent="1" vertex="1">
          <mxGeometry x="680" y="125" width="80" height="40" as="geometry" />
        </mxCell>
        <mxCell id="Dx2p2IBM6nT1JZtIELXC-10" value="" style="shape=triangle;direction=south;fillColor=#ffffff;strokeColor=none;perimeter=none;fontSize=18;" parent="Dx2p2IBM6nT1JZtIELXC-9" vertex="1">
          <mxGeometry x="1" y="0.5" width="10" height="5" relative="1" as="geometry">
            <mxPoint x="-17" y="-2.5" as="offset" />
          </mxGeometry>
        </mxCell>
        <mxCell id="Dx2p2IBM6nT1JZtIELXC-11" value="" style="html=1;shadow=0;dashed=0;shape=mxgraph.bootstrap.rrect;rSize=5;fillColor=#ffffff;strokeColor=#999999;fontSize=18;" parent="1" vertex="1">
          <mxGeometry x="680" y="168" width="170" height="102" as="geometry" />
        </mxCell>
        <mxCell id="Dx2p2IBM6nT1JZtIELXC-12" value="Signin" style="fillColor=none;strokeColor=none;align=left;spacing=20;fontSize=14;" parent="Dx2p2IBM6nT1JZtIELXC-11" vertex="1">
          <mxGeometry width="170" height="30" relative="1" as="geometry">
            <mxPoint y="10" as="offset" />
          </mxGeometry>
        </mxCell>
        <mxCell id="Dx2p2IBM6nT1JZtIELXC-13" value="Clubs" style="fillColor=none;strokeColor=none;align=left;spacing=20;fontSize=14;" parent="Dx2p2IBM6nT1JZtIELXC-11" vertex="1">
          <mxGeometry width="170" height="30" relative="1" as="geometry">
            <mxPoint y="40" as="offset" />
          </mxGeometry>
        </mxCell>
        <mxCell id="Dx2p2IBM6nT1JZtIELXC-14" value="Sign out" style="fillColor=none;strokeColor=none;align=left;spacing=20;fontSize=14;" parent="Dx2p2IBM6nT1JZtIELXC-11" vertex="1">
          <mxGeometry width="170" height="30" relative="1" as="geometry">
            <mxPoint y="70" as="offset" />
          </mxGeometry>
        </mxCell>
        <mxCell id="Dx2p2IBM6nT1JZtIELXC-15" value="" style="shape=line;strokeColor=#999999;perimeter=none;resizeWidth=1;fontSize=18;" parent="Dx2p2IBM6nT1JZtIELXC-11" vertex="1">
          <mxGeometry width="170" height="10" relative="1" as="geometry">
            <mxPoint y="32" as="offset" />
          </mxGeometry>
        </mxCell>
        <mxCell id="Dx2p2IBM6nT1JZtIELXC-17" value="" style="rounded=0;whiteSpace=wrap;html=1;fontSize=18;fillColor=#647687;fontColor=#ffffff;strokeColor=#314354;" parent="1" vertex="1">
          <mxGeometry x="250" y="240" width="410" height="90" as="geometry" />
        </mxCell>
        <mxCell id="Dx2p2IBM6nT1JZtIELXC-18" value="" style="rounded=0;whiteSpace=wrap;html=1;fontSize=18;fillColor=#e51400;fontColor=#ffffff;strokeColor=#B20000;" parent="1" vertex="1">
          <mxGeometry x="260" y="255" width="50" height="60" as="geometry" />
        </mxCell>
        <mxCell id="Dx2p2IBM6nT1JZtIELXC-19" value="&lt;div align=&quot;left&quot;&gt;Title (#ofclubs)&lt;br&gt;&lt;/div&gt;&lt;div align=&quot;left&quot;&gt;Description &lt;br&gt;&lt;/div&gt;" style="text;html=1;strokeColor=default;fillColor=none;align=left;verticalAlign=middle;whiteSpace=wrap;rounded=0;fontSize=18;" parent="1" vertex="1">
          <mxGeometry x="330" y="260" width="140" height="55" as="geometry" />
        </mxCell>
        <mxCell id="Dx2p2IBM6nT1JZtIELXC-20" value="Join" style="rounded=1;html=1;shadow=0;dashed=0;whiteSpace=wrap;fontSize=10;fillColor=#1ba1e2;align=center;strokeColor=#006EAF;fontColor=#ffffff;" parent="1" vertex="1">
          <mxGeometry x="480" y="260" width="60" height="16.88" as="geometry" />
        </mxCell>
        <mxCell id="Dx2p2IBM6nT1JZtIELXC-21" value="Create" style="rounded=1;html=1;shadow=0;dashed=0;whiteSpace=wrap;fontSize=10;fillColor=#60a917;align=center;strokeColor=#2D7600;fontColor=#ffffff;" parent="1" vertex="1">
          <mxGeometry x="480" y="290" width="60" height="16.88" as="geometry" />
        </mxCell>
        <mxCell id="Dx2p2IBM6nT1JZtIELXC-25" value="" style="rounded=0;whiteSpace=wrap;html=1;" parent="1" vertex="1">
          <mxGeometry x="910" y="110" width="670" height="650" as="geometry" />
        </mxCell>
        <mxCell id="Dx2p2IBM6nT1JZtIELXC-26" value="" style="rounded=0;whiteSpace=wrap;html=1;fillColor=#d5e8d4;strokeColor=#82b366;" parent="1" vertex="1">
          <mxGeometry x="920" y="120" width="650" height="60" as="geometry" />
        </mxCell>
        <mxCell id="Dx2p2IBM6nT1JZtIELXC-27" value="" style="shape=rect;fillColor=#e0e0e0;strokeColor=none;" parent="1" vertex="1">
          <mxGeometry x="1086.5" y="145" width="317" height="20" as="geometry" />
        </mxCell>
        <mxCell id="Dx2p2IBM6nT1JZtIELXC-28" value="" style="html=1;strokeWidth=1;shadow=0;dashed=0;shape=mxgraph.ios7ui.marginRect;rx=3;ry=3;rectMargin=5;strokeColor=none;" parent="Dx2p2IBM6nT1JZtIELXC-27" vertex="1">
          <mxGeometry width="317" height="20" as="geometry" />
        </mxCell>
        <mxCell id="Dx2p2IBM6nT1JZtIELXC-29" value="Search" style="shape=mxgraph.ios7.icons.looking_glass;strokeColor=#e0e0e0;fillColor=none;fontColor=#e0e0e0;labelPosition=right;verticalLabelPosition=middle;align=left;verticalAlign=middle;fontSize=6;fontStyle=0;spacingTop=2;sketch=0;" parent="Dx2p2IBM6nT1JZtIELXC-27" vertex="1">
          <mxGeometry x="0.5" y="0.5" width="6" height="6" relative="1" as="geometry">
            <mxPoint x="-17" y="-3" as="offset" />
          </mxGeometry>
        </mxCell>
        <mxCell id="Dx2p2IBM6nT1JZtIELXC-30" value="&lt;font style=&quot;font-size: 18px&quot;&gt;BookWorms&lt;/font&gt;" style="text;html=1;strokeColor=none;fillColor=none;align=center;verticalAlign=middle;whiteSpace=wrap;rounded=0;" parent="1" vertex="1">
          <mxGeometry x="940" y="135" width="110" height="30" as="geometry" />
        </mxCell>
        <mxCell id="Dx2p2IBM6nT1JZtIELXC-31" value="Primary" style="html=1;shadow=0;dashed=0;shape=mxgraph.bootstrap.rrect;rSize=5;strokeColor=none;strokeWidth=1;fillColor=#006AC9;fontColor=#ffffff;whiteSpace=wrap;align=left;verticalAlign=middle;fontStyle=0;fontSize=14;spacingLeft=10;" parent="1" vertex="1">
          <mxGeometry x="1480" y="135" width="80" height="40" as="geometry" />
        </mxCell>
        <mxCell id="Dx2p2IBM6nT1JZtIELXC-32" value="" style="shape=triangle;direction=south;fillColor=#ffffff;strokeColor=none;perimeter=none;fontSize=18;" parent="Dx2p2IBM6nT1JZtIELXC-31" vertex="1">
          <mxGeometry x="1" y="0.5" width="10" height="5" relative="1" as="geometry">
            <mxPoint x="-17" y="-2.5" as="offset" />
          </mxGeometry>
        </mxCell>
        <mxCell id="Dx2p2IBM6nT1JZtIELXC-33" value="" style="html=1;shadow=0;dashed=0;shape=mxgraph.bootstrap.rrect;rSize=5;fillColor=#ffffff;strokeColor=#999999;fontSize=18;" parent="1" vertex="1">
          <mxGeometry x="1480" y="178" width="170" height="102" as="geometry" />
        </mxCell>
        <mxCell id="Dx2p2IBM6nT1JZtIELXC-34" value="Signin" style="fillColor=none;strokeColor=none;align=left;spacing=20;fontSize=14;" parent="Dx2p2IBM6nT1JZtIELXC-33" vertex="1">
          <mxGeometry width="170" height="30" relative="1" as="geometry">
            <mxPoint y="10" as="offset" />
          </mxGeometry>
        </mxCell>
        <mxCell id="Dx2p2IBM6nT1JZtIELXC-35" value="Clubs" style="fillColor=none;strokeColor=none;align=left;spacing=20;fontSize=14;" parent="Dx2p2IBM6nT1JZtIELXC-33" vertex="1">
          <mxGeometry width="170" height="30" relative="1" as="geometry">
            <mxPoint y="40" as="offset" />
          </mxGeometry>
        </mxCell>
        <mxCell id="Dx2p2IBM6nT1JZtIELXC-36" value="Sign out" style="fillColor=none;strokeColor=none;align=left;spacing=20;fontSize=14;" parent="Dx2p2IBM6nT1JZtIELXC-33" vertex="1">
          <mxGeometry width="170" height="30" relative="1" as="geometry">
            <mxPoint y="70" as="offset" />
          </mxGeometry>
        </mxCell>
        <mxCell id="Dx2p2IBM6nT1JZtIELXC-37" value="" style="shape=line;strokeColor=#999999;perimeter=none;resizeWidth=1;fontSize=18;" parent="Dx2p2IBM6nT1JZtIELXC-33" vertex="1">
          <mxGeometry width="170" height="10" relative="1" as="geometry">
            <mxPoint y="32" as="offset" />
          </mxGeometry>
        </mxCell>
        <mxCell id="Dx2p2IBM6nT1JZtIELXC-38" value="" style="rounded=0;whiteSpace=wrap;html=1;fontSize=18;fillColor=#647687;fontColor=#ffffff;strokeColor=#314354;" parent="1" vertex="1">
          <mxGeometry x="1050" y="315" width="410" height="90" as="geometry" />
        </mxCell>
        <mxCell id="Dx2p2IBM6nT1JZtIELXC-40" value="&lt;div align=&quot;left&quot;&gt;Club Title&lt;/div&gt;&lt;div align=&quot;left&quot;&gt;c/t members&lt;br&gt;&lt;/div&gt;" style="text;html=1;strokeColor=default;fillColor=none;align=left;verticalAlign=middle;whiteSpace=wrap;rounded=0;fontSize=18;" parent="1" vertex="1">
          <mxGeometry x="1070" y="335" width="140" height="55" as="geometry" />
        </mxCell>
        <mxCell id="Dx2p2IBM6nT1JZtIELXC-41" value="Join" style="rounded=1;html=1;shadow=0;dashed=0;whiteSpace=wrap;fontSize=10;fillColor=#1ba1e2;align=center;strokeColor=#006EAF;fontColor=#ffffff;" parent="1" vertex="1">
          <mxGeometry x="1390" y="330" width="60" height="16.88" as="geometry" />
        </mxCell>
        <mxCell id="Dx2p2IBM6nT1JZtIELXC-43" value="Book title" style="rounded=0;whiteSpace=wrap;html=1;fontSize=17;strokeColor=#006EAF;fillColor=#1ba1e2;fontColor=#ffffff;" parent="1" vertex="1">
          <mxGeometry x="995" y="195" width="500" height="60" as="geometry" />
        </mxCell>
        <mxCell id="Dx2p2IBM6nT1JZtIELXC-45" value="&lt;div style=&quot;font-size: 16px&quot;&gt;&lt;font style=&quot;font-size: 16px&quot;&gt;Pace&lt;/font&gt;&lt;/div&gt;&lt;div style=&quot;font-size: 16px&quot;&gt;&lt;font style=&quot;font-size: 16px&quot;&gt;Start/ Finish Date&lt;/font&gt;&lt;br&gt;&lt;/div&gt;&lt;div&gt;&lt;br&gt;&lt;/div&gt;" style="text;html=1;strokeColor=default;fillColor=none;align=center;verticalAlign=middle;whiteSpace=wrap;rounded=0;fontSize=17;" parent="1" vertex="1">
          <mxGeometry x="1230" y="335" width="160" height="60" as="geometry" />
        </mxCell>
      </root>
    </mxGraphModel>
  </diagram>
  <diagram id="YWiBoF37zvhiD6di4Dcs" name="Page-2">
    <mxGraphModel dx="1102" dy="608" grid="1" gridSize="10" guides="1" tooltips="1" connect="1" arrows="1" fold="1" page="1" pageScale="1" pageWidth="850" pageHeight="1100" math="0" shadow="0">
      <root>
        <mxCell id="fPk29yKbPpD4FJDfMSu7-0" />
        <mxCell id="fPk29yKbPpD4FJDfMSu7-1" parent="fPk29yKbPpD4FJDfMSu7-0" />
        <mxCell id="7J1tb2ktRxZvWNJe3c3j-0" value="" style="rounded=0;whiteSpace=wrap;html=1;" vertex="1" parent="fPk29yKbPpD4FJDfMSu7-1">
          <mxGeometry x="110" y="100" width="670" height="650" as="geometry" />
        </mxCell>
        <mxCell id="7J1tb2ktRxZvWNJe3c3j-1" value="" style="rounded=0;whiteSpace=wrap;html=1;fillColor=#d5e8d4;strokeColor=#82b366;" vertex="1" parent="fPk29yKbPpD4FJDfMSu7-1">
          <mxGeometry x="120" y="110" width="650" height="60" as="geometry" />
        </mxCell>
        <mxCell id="7J1tb2ktRxZvWNJe3c3j-2" value="" style="shape=rect;fillColor=#e0e0e0;strokeColor=none;" vertex="1" parent="fPk29yKbPpD4FJDfMSu7-1">
          <mxGeometry x="286.5" y="135" width="317" height="20" as="geometry" />
        </mxCell>
        <mxCell id="7J1tb2ktRxZvWNJe3c3j-3" value="" style="html=1;strokeWidth=1;shadow=0;dashed=0;shape=mxgraph.ios7ui.marginRect;rx=3;ry=3;rectMargin=5;strokeColor=none;" vertex="1" parent="7J1tb2ktRxZvWNJe3c3j-2">
          <mxGeometry width="317" height="20" as="geometry" />
        </mxCell>
        <mxCell id="7J1tb2ktRxZvWNJe3c3j-4" value="Search" style="shape=mxgraph.ios7.icons.looking_glass;strokeColor=#e0e0e0;fillColor=none;fontColor=#e0e0e0;labelPosition=right;verticalLabelPosition=middle;align=left;verticalAlign=middle;fontSize=6;fontStyle=0;spacingTop=2;sketch=0;" vertex="1" parent="7J1tb2ktRxZvWNJe3c3j-2">
          <mxGeometry x="0.5" y="0.5" width="6" height="6" relative="1" as="geometry">
            <mxPoint x="-17" y="-3" as="offset" />
          </mxGeometry>
        </mxCell>
        <mxCell id="7J1tb2ktRxZvWNJe3c3j-5" value="&lt;font style=&quot;font-size: 18px&quot;&gt;BookWorms&lt;/font&gt;" style="text;html=1;strokeColor=none;fillColor=none;align=center;verticalAlign=middle;whiteSpace=wrap;rounded=0;" vertex="1" parent="fPk29yKbPpD4FJDfMSu7-1">
          <mxGeometry x="140" y="125" width="110" height="30" as="geometry" />
        </mxCell>
        <mxCell id="7J1tb2ktRxZvWNJe3c3j-6" value="Primary" style="html=1;shadow=0;dashed=0;shape=mxgraph.bootstrap.rrect;rSize=5;strokeColor=none;strokeWidth=1;fillColor=#006AC9;fontColor=#ffffff;whiteSpace=wrap;align=left;verticalAlign=middle;fontStyle=0;fontSize=14;spacingLeft=10;" vertex="1" parent="fPk29yKbPpD4FJDfMSu7-1">
          <mxGeometry x="680" y="125" width="80" height="40" as="geometry" />
        </mxCell>
        <mxCell id="7J1tb2ktRxZvWNJe3c3j-7" value="" style="shape=triangle;direction=south;fillColor=#ffffff;strokeColor=none;perimeter=none;fontSize=18;" vertex="1" parent="7J1tb2ktRxZvWNJe3c3j-6">
          <mxGeometry x="1" y="0.5" width="10" height="5" relative="1" as="geometry">
            <mxPoint x="-17" y="-2.5" as="offset" />
          </mxGeometry>
        </mxCell>
        <mxCell id="7J1tb2ktRxZvWNJe3c3j-13" value="" style="rounded=0;whiteSpace=wrap;html=1;" vertex="1" parent="fPk29yKbPpD4FJDfMSu7-1">
          <mxGeometry x="220" y="180" width="450" height="360" as="geometry" />
        </mxCell>
        <mxCell id="7J1tb2ktRxZvWNJe3c3j-14" value="" style="rounded=0;whiteSpace=wrap;html=1;" vertex="1" parent="fPk29yKbPpD4FJDfMSu7-1">
          <mxGeometry x="270" y="200" width="350" height="320" as="geometry" />
        </mxCell>
        <mxCell id="7J1tb2ktRxZvWNJe3c3j-15" value="Text" style="text;html=1;strokeColor=none;fillColor=none;align=center;verticalAlign=middle;whiteSpace=wrap;rounded=0;" vertex="1" parent="fPk29yKbPpD4FJDfMSu7-1">
          <mxGeometry x="390" y="420" width="60" height="30" as="geometry" />
        </mxCell>
      </root>
    </mxGraphModel>
  </diagram>
</mxfile>
